<mxfile host="app.diagrams.net" modified="2023-12-05T14:07:48.141Z" agent="Mozilla/5.0 (X11; Ubuntu; Linux x86_64; rv:120.0) Gecko/20100101 Firefox/120.0" version="22.1.5" etag="xVdI2jKj43J5KYA0zDTo" type="github">
  <diagram name="Page-1" id="dbRLmHsHgckAquCMLA6Q">
    <mxGraphModel>
      <root>
        <mxCell id="0" />
        <mxCell id="1" parent="0" />
      </root>
    </mxGraphModel>
  </diagram>
</mxfile>
